# xmcd CD database file
#
# Track frame offsets:
#	150
#	17631
#	29564
#	39522
#	56229
#	71673
#	89148
#	103598
#	119982
#	132730
#
# Disc length: 1907 seconds
#
# Revision: 3
# Processed by: cddbd v1.5.2PL0 Copyright (c) Steve Scherf et al.
# Submitted via: CDex 2.21
#
DISCID=9e07710a
DTITLE=Reba McEntire - Reba Nell McEntire
DYEAR=1986
DGENRE=Country
TTITLE0=I've Never Stopped Dreaming Of You
TTITLE1=Hold On
TTITLE2=I Know I'll Have A Better Day Tomorrow
TTITLE3=Don't Say Goodnight, Say Good Morning
TTITLE4=Muddy Mississippi
TTITLE5=It's Another Silent Night
TTITLE6=Empty Arms
TTITLE7=Love Is Never Easy
TTITLE8=Waitin' For The Sun To Shine
TTITLE9=Good Friends
EXTD=YEAR: 1986
EXTT0=
EXTT1=
EXTT2=
EXTT3=
EXTT4=
EXTT5=
EXTT6=
EXTT7=
EXTT8=
EXTT9=
PLAYORDER=
